<svg width="278" height="444" viewBox="0 0 278 444" fill="none" xmlns="http://www.w3.org/2000/svg">
<g clip-path="url(#clip0)">
<path d="M178.223 9.019C177.265 9.019 94.0328 12.628 88.2661 21.2901C82.4979 29.9525 82.189 47.9971 88.2661 49.0806C94.3432 50.1638 179.507 48.7184 179.507 48.7184L246.736 48.3561C246.736 48.3561 237.456 25.62 248.023 18.0418C248.023 18.0418 184.957 9.01981 178.232 9.01981L178.223 9.019Z" fill="#26231F"/>
<path d="M177.904 63.5213C177.904 63.5213 86.6631 62.4368 80.8965 67.8514C75.1282 73.266 63.6128 114.771 83.4611 118.018C103.31 121.266 184.626 114.05 184.626 114.05L257.29 110.438C257.29 110.438 248.009 73.9868 257.928 64.9642L177.895 63.5219L177.904 63.5213Z" fill="#26231F"/>
<path d="M58.4955 137.143C58.4955 137.143 68.7335 162.768 56.5695 173.595C56.5695 173.595 155.812 179.01 161.259 170.708C166.709 162.407 165.101 133.173 160.621 131.369C156.14 129.565 63.2938 137.506 58.4984 137.144L58.4955 137.143Z" fill="#26231F"/>
<path d="M88.1846 189.028C83.7541 196.878 79.9517 231.842 88.1846 233.981C96.4176 236.12 174.263 232.554 174.263 232.554L245.78 210.434C245.78 210.434 234.383 186.888 241.978 177.61C241.978 177.61 92.6149 181.178 88.1796 189.027L88.1846 189.028Z" fill="#26231F"/>
<path d="M175.418 242.962C175.418 242.962 47.8792 248.447 43.0159 255.147C38.1567 261.847 34.9133 278.306 45.1813 280.737C55.4499 283.167 172.713 280.129 178.12 277.081C183.529 274.032 267.833 249.666 267.833 249.666C267.833 249.666 255.399 233.826 261.346 223.469C267.294 213.111 175.417 242.964 175.417 242.964L175.418 242.962Z" fill="#26231F"/>
<path d="M34.3693 297.191C34.3693 297.191 49.5073 324.606 28.9708 336.79C28.9708 336.79 167.316 350.2 174.346 342.888C181.372 335.575 205.691 298.417 172.72 293.535C139.759 288.664 41.3975 291.105 34.3743 297.191L34.3693 297.191Z" fill="#26231F"/>
<path d="M185.144 363.595C185.144 363.595 37.6092 352.019 26.7959 361.772C15.9887 371.515 14.9107 399.548 27.3347 403.813C39.7687 408.077 185.683 426.346 185.683 426.346L252.701 394.059C252.701 394.059 231.616 359.938 254.318 331.308L185.145 363.595H185.144Z" fill="#26231F"/>
<path d="M188.921 352.008C188.921 352.008 36.5225 342.873 24.636 344.696C12.7413 346.53 -19.2124 380.797 19.3971 416.076C20.5047 417.088 184.545 451.355 187.663 440.838C189.828 433.525 192.163 423.299 187.303 421.465C182.433 419.643 28.4179 400.147 28.4179 400.147C28.4179 400.147 10.586 367.241 32.7387 362.371C51.9086 358.153 181.354 372.732 185.674 368.469C189.995 364.194 192.161 350.795 188.917 352.01L188.921 352.008Z" fill="#26231F"/>
<path d="M188.921 352.008C188.921 352.008 189.071 351.862 189.44 351.884C189.839 351.884 190.298 352.424 190.448 353.201C190.787 354.753 190.628 357.127 189.939 360.074C189.59 361.536 189.101 363.168 188.343 364.855C187.963 365.699 187.514 366.554 186.955 367.386C186.666 367.803 186.357 368.208 185.997 368.579C185.828 368.804 185.499 368.984 185.269 369.051L184.521 369.242C182.535 369.591 180.429 369.614 178.164 369.647C175.899 369.681 173.494 369.625 170.949 369.546C150.572 368.905 121.184 366.452 84.85 364.146C75.7694 363.595 66.2493 363.044 56.3305 362.706C51.371 362.549 46.3119 362.436 41.1728 362.56C38.6182 362.639 36.0136 362.74 33.4989 363.179C31.0143 363.64 28.5294 364.574 26.5632 366.284C24.5675 367.96 23.2703 370.514 22.7913 373.337C22.2923 376.183 22.4819 379.209 23.0009 382.179C23.5198 385.149 24.368 388.097 25.4158 390.988C25.9348 392.428 26.5035 393.856 27.1122 395.274C27.4216 395.983 27.741 396.68 28.0702 397.378L28.5691 398.413L28.9483 399.167L63.2759 403.52L138.31 413.228C151.313 414.972 164.545 416.727 177.977 418.696L183.016 419.472L185.551 419.911L186.848 420.159C187.247 420.226 187.876 420.429 188.325 420.71C189.303 421.261 190.071 422.274 190.491 423.331C190.9 424.388 191.089 425.468 191.149 426.515C191.279 428.618 191.049 430.621 190.73 432.567C190.401 434.524 189.952 436.437 189.453 438.316C189.203 439.261 188.934 440.194 188.664 441.128C188.575 441.488 188.275 441.994 188.026 442.219C187.756 442.489 187.497 442.658 187.247 442.793C186.748 443.063 186.279 443.221 185.82 443.344C183.974 443.817 182.218 443.896 180.452 443.963C178.695 444.019 176.939 443.986 175.193 443.918C168.197 443.625 161.312 442.861 154.486 442.028C147.661 441.195 140.895 440.206 134.189 439.182C120.777 437.112 107.595 434.817 94.6625 432.466C81.7299 430.103 69.0466 427.662 56.6425 425.176C44.2289 422.656 32.104 420.226 20.2691 417.436L19.7102 417.279L19.4109 417.2C19.2711 417.155 19.0716 417.088 18.9219 416.986C18.5826 416.705 18.5327 416.638 18.3631 416.48L17.924 416.075C17.3452 415.524 16.7665 414.973 16.1976 414.41C15.07 413.274 13.9624 412.115 12.9046 410.912C10.7791 408.493 8.80326 405.939 7.06687 403.194C3.58426 397.738 1.03959 391.472 0.271173 384.879C-0.537111 378.298 0.530623 371.605 2.89566 365.811C5.25068 359.983 8.76325 354.943 12.8647 350.893C14.9303 348.868 17.1557 347.08 19.5805 345.685C20.788 344.987 22.0553 344.402 23.4124 344.02C24.8095 343.626 26.1566 343.637 27.454 343.581C32.6529 343.468 37.7124 343.626 42.6918 343.761C52.6208 344.065 62.1511 344.481 71.2514 344.908C107.624 346.652 137.042 348.463 157.371 349.735C177.698 351.006 188.934 351.849 188.925 352.007C188.916 352.164 177.668 351.647 157.332 350.623C136.995 349.633 107.566 348.081 71.1916 346.54C62.1008 346.168 52.5712 345.797 42.6518 345.538C37.6922 345.426 32.6127 345.302 27.4934 345.426C26.2062 345.482 24.9389 345.494 23.8012 345.831C22.6337 346.168 21.4661 346.708 20.3385 347.361C18.0733 348.677 15.9477 350.387 13.9819 352.333C10.0602 356.226 6.71754 361.086 4.49171 366.62C2.26641 372.155 1.28846 378.421 2.05681 384.597C2.78528 390.796 5.21013 396.736 8.56309 401.978C10.2396 404.611 12.1555 407.086 14.2211 409.426C15.259 410.585 16.3367 411.721 17.4444 412.823C17.9932 413.375 18.562 413.915 19.1308 414.443L19.8693 415.129C19.8783 415.141 19.8693 415.141 19.9093 415.152L20.1588 415.22L20.6876 415.355C32.4132 418.1 44.587 420.518 56.9809 423.005C69.3749 425.468 82.0581 427.887 94.9805 430.227C107.904 432.567 121.066 434.851 134.457 436.898C141.153 437.922 147.899 438.901 154.704 439.744C161.51 440.566 168.375 441.33 175.261 441.612C176.977 441.679 178.703 441.713 180.4 441.657C182.096 441.6 183.803 441.499 185.339 441.105C185.709 441.004 186.068 440.869 186.347 440.723C186.487 440.644 186.597 440.566 186.657 440.509C186.726 440.408 186.677 440.509 186.717 440.397C186.986 439.485 187.245 438.574 187.495 437.652C187.974 435.829 188.403 433.984 188.712 432.139C189.021 430.294 189.221 428.449 189.111 426.694C189.012 424.939 188.493 423.342 187.385 422.757C187.086 422.588 186.886 422.51 186.447 422.419L185.229 422.183L182.725 421.756L177.705 420.968C164.304 419 151.071 417.222 138.069 415.478L63.0548 405.635L45.352 403.34L36.6803 402.226L32.3794 401.675L30.2438 401.393L29.1862 401.258L28.4976 401.168L27.9987 401.101C27.909 401.112 27.8389 401.078 27.809 400.977L27.6794 400.73L27.2602 399.931L27.0007 399.391L26.4818 398.322C26.1427 397.602 25.8234 396.882 25.504 396.151C24.8853 394.7 24.2966 393.226 23.7677 391.741C22.6999 388.76 21.8217 385.7 21.2829 382.55C20.744 379.423 20.5245 376.16 21.0932 372.954C21.632 369.77 23.1987 366.699 25.5237 364.764C27.8291 362.784 30.5533 361.816 33.2378 361.31C35.9222 360.871 38.5366 360.781 41.1413 360.714C46.3303 360.613 51.4099 360.748 56.3791 360.928C66.3183 361.31 75.8479 361.906 84.9285 362.525C121.272 365.034 150.64 367.734 170.967 368.645C173.511 368.757 175.906 368.836 178.162 368.859C180.397 368.859 182.522 368.859 184.419 368.566C184.888 368.465 185.357 368.397 185.596 368.094C185.935 367.756 186.235 367.385 186.504 366.991C187.063 366.215 187.502 365.394 187.891 364.584C188.65 362.964 189.168 361.378 189.538 359.949C190.276 357.08 190.496 354.74 190.246 353.255C190.126 352.513 189.767 352.04 189.428 352.006C189.099 351.939 188.919 352.04 188.919 352.006L188.921 352.008Z" fill="#26231F"/>
<path d="M181.884 353.854C181.884 353.854 257.007 306.941 261.864 311.813C266.723 316.685 264.438 326.427 261.195 329.476C257.952 332.524 187.92 372.215 184.985 370.144C180.056 366.668 181.882 353.855 181.882 353.855L181.884 353.854Z" fill="#26231F"/>
<path d="M183.514 421.474C183.514 421.474 254.854 384.315 258.094 389.187C261.336 394.059 257.914 404.127 257.914 404.127C257.914 404.127 191.085 442.085 187.301 442.085C183.519 442.085 180.276 421.475 183.51 421.475L183.514 421.474Z" fill="#26231F"/>
<path d="M261.34 258.186C261.34 258.186 289.98 275.856 272.148 306.309C272.148 306.309 192.148 352.973 186.212 352.973C180.276 352.973 23.5566 350.183 18.6934 344.086C13.8238 338 21.3977 332.51 21.3977 332.51C21.3977 332.51 168.926 340.43 172.709 338C172.709 338 182.439 306.309 166.223 299.009C150.01 291.708 30.0446 300.219 30.0446 300.219C30.0446 300.219 23.0193 289.858 32.7489 289.25C34.9044 289.115 174.878 281.33 180.828 281.33C186.774 281.33 260.27 252.7 261.35 258.182L261.34 258.186Z" fill="#26231F"/>
<path d="M177.048 233.221C177.048 233.221 182.986 247.233 175.961 247.841C168.936 248.45 50.0451 252.108 46.8052 258.2C43.5627 264.292 42.4843 275.87 48.9706 275.87C55.447 275.87 175.959 266.724 177.046 270.38C178.134 274.036 176.497 282.564 176.497 282.564C176.497 282.564 42.7909 293.488 37.3842 289.831C31.9755 286.175 27.405 260.907 30.6484 255.425C33.8916 249.943 71.661 235.046 81.9289 236.876C92.1969 238.705 177.048 233.222 177.048 233.222L177.048 233.221Z" fill="#26231F"/>
<path d="M177.028 233.221C177.028 233.221 262.95 208.852 266.19 213.724C269.433 218.597 269.982 221.035 265.652 223.473C261.331 225.91 177.019 250.281 175.939 247.841C174.86 245.402 173.234 236.876 176.478 235.658L177.026 233.221L177.028 233.221Z" fill="#26231F"/>
<path d="M174.331 270.361C174.331 270.361 269.987 239.901 272.147 245.385C274.313 250.87 274.313 255.744 268.904 257.571C263.495 259.398 175.951 286.201 173.248 284.985C170.554 283.77 174.336 270.361 174.336 270.361H174.331Z" fill="#26231F"/>
<path d="M173.611 175.486C173.611 175.486 86.9077 174.773 80.5773 182.62C74.2506 190.468 56.0482 231.567 72.5039 239.416C88.9596 247.265 171.087 239.705 172.982 236.851C174.88 233.997 172.982 225.435 172.982 225.435C172.982 225.435 92.6023 233.284 88.7987 228.289C84.9954 223.294 83.1007 196.179 90.7047 191.899C98.3087 187.618 171.085 190.473 172.98 188.332C172.98 188.332 179.307 171.919 173.608 175.488L173.611 175.486Z" fill="#26231F"/>
<path d="M173.611 175.486C173.611 175.486 249.569 161.215 251.465 166.923C253.362 172.63 247.663 177.625 247.663 177.625C247.663 177.625 176.785 189.044 172.981 188.33C169.18 187.615 167.912 174.772 173.61 175.486H173.611Z" fill="#26231F"/>
<path d="M172.98 225.435C172.98 225.435 248.299 199.033 250.826 205.457C253.35 211.88 251.465 214.733 251.465 214.733C251.465 214.733 177.415 236.851 172.98 236.851C168.548 236.851 172.98 225.435 172.98 225.435H172.98Z" fill="#26231F"/>
<path d="M58.4955 124.149C58.4955 124.149 164.462 116.928 169.903 125.952C175.341 134.975 177.906 172.871 172.467 176.84C167.029 180.809 56.2512 189.833 54.0097 185.503C51.7644 181.172 53.3711 169.984 53.3711 169.984C53.3711 169.984 153.259 173.954 157.103 170.346C160.945 166.738 161.264 136.778 157.742 133.892C154.219 131.007 57.2157 141.833 55.3003 138.225C53.3851 134.617 54.981 124.51 58.5035 124.149L58.4955 124.149Z" fill="#26231F"/>
<path d="M158.39 122.351C158.39 122.351 260.512 117.656 262.441 121.266C264.367 124.876 267.241 160.605 258.918 165.66L250.586 168.545C250.586 168.545 174.716 179.733 169.595 177.208C164.475 174.682 156.472 121.989 158.388 122.351L158.39 122.351Z" fill="#26231F"/>
<path d="M178.882 65.3191C177.924 67.8458 90.2087 67.1236 82.8459 69.6516C75.481 72.1795 79.3232 108.627 82.2072 113.681C85.0812 118.735 184.01 109.709 184.01 109.709C184.01 109.709 184.649 118.372 183.362 121.62C182.084 124.868 90.5245 130.282 76.7565 123.063C62.9858 115.844 68.7532 65.3184 76.1179 61.3495C82.9734 57.655 165.81 54.899 177.255 54.5332L178.563 54.4904L178.882 65.3198L178.882 65.3191Z" fill="#26231F"/>
<path d="M177.252 54.5321C177.252 54.5321 262.115 53.7694 264.356 57.3783C266.602 60.9872 262.76 66.0407 262.76 66.0407C262.76 66.0407 176.959 70.3708 175.037 67.123C173.113 63.8751 172.802 56.2949 176.644 55.9347L177.252 54.5318L177.252 54.5321Z" fill="#26231F"/>
<path d="M182.068 110.087C183.026 110.087 256.661 102.508 258.583 108.284C260.507 114.06 258.254 120.195 258.254 120.195C258.254 120.195 183.993 125.967 182.064 123.442C180.138 120.916 177.903 113.336 181.426 111.533L182.064 110.088L182.068 110.087Z" fill="#26231F"/>
<path d="M180.166 0.0093147C180.166 0.0093147 83.1583 7.58757 79.6399 13.0016C76.117 18.4161 68.4333 53.0625 82.5238 56.6719C96.6137 60.2811 182.085 54.8662 182.085 54.8662L181.447 43.6786C181.447 43.6786 89.8932 49.4531 87.9642 44.4018C86.0377 39.3505 85.7289 24.5504 90.5288 22.0246C95.3288 19.4988 178.245 15.5267 178.564 11.9177C178.883 8.30875 184.97 -0.35332 180.17 0.00898092L180.166 0.0093147Z" fill="#26231F"/>
<path d="M180.166 0.00933838C180.166 0.00933838 253.468 7.58827 253.794 13.3639C254.115 19.1395 251.878 20.221 251.878 20.221C251.878 20.221 177.285 14.8065 176.328 11.9181C175.36 9.03147 177.286 0.368222 180.169 0.00933838H180.166Z" fill="#26231F"/>
<path d="M178.563 44.75C182.115 43.4135 246.11 42.2234 249.311 45.8311C252.515 49.4389 254.431 54.4922 248.673 55.577C242.915 56.6616 177.605 57.0192 176.647 55.9381C175.679 54.8548 175.679 45.8313 178.563 44.7498L178.563 44.75Z" fill="#26231F"/>
<path d="M28.4872 362.884C28.4872 362.884 14.2172 376.902 28.8564 398.771C58.3241 404.542 179.944 421.518 179.944 421.518C179.944 421.518 168.488 380.579 178.737 371.513C178.737 371.513 41.2946 354.222 29.2247 361.23C17.15 368.239 28.4862 362.884 28.4862 362.884L28.4872 362.884Z" fill="#FEFBDE"/>
<path d="M189.145 371.032C189.145 371.032 184.984 373.687 184.016 379.773C181.451 395.861 187.309 417.315 187.309 417.315L246.943 390.091C246.943 390.091 232.673 367.817 243.291 340.591L189.145 371.033L189.145 371.032Z" fill="#D9B68B"/>
<path d="M184.37 292.748C184.37 292.748 188.402 334.001 178.153 350.088C178.153 350.088 268.165 305.954 270.359 302.647C272.554 299.341 280.358 285.671 266.697 272.947C258.284 265.118 184.367 292.747 184.367 292.747L184.37 292.748Z" fill="#2C559E"/>
<path d="M30.6811 291.935C30.6811 291.935 28.8549 297.706 31.0503 297.706C33.2456 297.706 120.335 288.222 172.649 298.122C176.531 298.853 178.866 289.459 176.671 289.459C174.475 289.459 58.1178 285.331 30.6769 291.934L30.6811 291.935Z" fill="#078CC9"/>
<path d="M22.6526 335.24C22.6526 335.24 18.6212 339.773 21.9141 342.665C25.2071 345.556 165.021 351.519 171.569 349.685C174.493 348.852 171.938 343.081 171.938 343.081C171.938 343.081 34.7269 341.011 22.6502 335.24L22.6526 335.24Z" fill="#078CC9"/>
<path d="M40.5639 301.833C40.5639 301.833 51.5409 322.454 38.3685 333.187L174.119 337.721C174.119 337.721 182.163 324.525 175.577 306.378C170.088 291.236 57.0237 300.191 40.5592 301.833L40.5639 301.833Z" fill="#FEFBDE"/>
<path d="M175.778 237.022C175.778 237.022 179.331 244.623 175.419 244.623C171.507 244.623 48.3691 249.425 43.3971 257.027C38.4271 264.629 42.6886 275.434 47.299 279.834C51.9093 284.234 176.489 274.636 176.489 274.636L175.78 284.233C175.78 284.233 44.4643 287.833 41.6251 287.034C38.7913 286.235 34.1706 263.431 34.5299 259.027C34.8891 254.626 56.1742 246.626 56.1742 246.626L175.78 237.014L175.778 237.022Z" fill="#009935"/>
<path d="M180.057 236.612C180.057 236.612 180.127 238.215 182.612 238.215C185.096 238.215 262.863 221.946 262.863 219.545C262.863 217.144 263.462 216.608 263.462 216.608C263.462 216.608 180.059 235.812 180.059 236.612H180.057Z" fill="#007429"/>
<path d="M182.611 274.114C182.611 274.114 180.266 278.186 184.517 276.982C188.768 275.779 268.069 257.41 269.849 254.61C271.624 251.81 265.418 251.851 265.418 251.851C265.418 251.851 182.973 271.312 182.613 274.114L182.611 274.114Z" fill="#007429"/>
<path d="M49.0406 263.033C49.0406 263.033 48.0627 272.843 54.4593 275.239C60.8457 277.635 175.77 271.031 175.77 271.031C175.77 271.031 169.732 254.621 175.411 249.82C181.089 245.019 175.93 247.84 175.93 247.84C175.93 247.84 52.5882 257.027 49.0358 263.033L49.0406 263.033Z" fill="#FEFBDE"/>
<path d="M182.883 247.809C182.883 247.809 171.527 254.611 179.34 269.412L262.39 246.211C262.39 246.211 252.45 236.608 257.061 227.806L182.889 247.811L182.883 247.809Z" fill="#D9B68B"/>
<path d="M173.659 229.011C173.659 229.011 175.425 234.613 172.94 234.613C170.456 234.613 87.7717 241.015 81.387 238.214C74.9904 235.414 72.1562 227.011 72.5054 221.41C72.8646 215.809 77.834 188.199 83.153 185.4C88.4816 182.599 171.888 177.799 171.888 181.4C171.888 185 169.403 185.8 169.403 185.8C169.403 185.8 90.6053 184.599 86.7065 189.401C82.8061 194.202 79.9609 221.01 84.9303 226.612C89.8998 232.215 95.5779 233.012 95.5779 233.012L173.662 229.011L173.659 229.011Z" fill="#302980"/>
<path d="M179.33 227.397C179.33 227.397 179.26 229.986 180.687 229.588C182.114 229.189 248.194 211.635 249.949 214.193C250.847 215.498 247.464 208.593 247.464 208.593C247.464 208.593 182.521 223.397 179.33 227.397L179.33 227.397Z" fill="#21276E"/>
<path d="M176.844 180.995C176.844 180.995 176.485 186.197 177.553 185.397C178.621 184.598 247.826 176.594 248.172 175.394C248.532 174.195 247.823 171.794 247.823 171.794C247.823 171.794 177.55 180.195 176.844 180.995L176.844 180.995Z" fill="#21276E"/>
<path d="M178.271 191.003C177.911 192.204 169.748 210.208 178.271 221.41L240.729 206.606C240.729 206.606 227.497 190.992 234.591 184.591L178.27 191.002L178.271 191.003Z" fill="#D9B68B"/>
<path d="M176.845 189.8C176.845 189.8 163.712 209.005 176.845 224.208C176.845 224.208 97.7006 232.21 91.3158 228.208C84.9193 224.208 83.8613 197.001 88.8311 191.399L176.846 189.798L176.845 189.8Z" fill="#FEFBDE"/>
<path d="M56.5733 173.599C56.5733 173.599 53.8291 182.375 57.2718 182.73C60.7246 183.083 150.802 178.838 153.003 177.069C155.198 175.299 152.683 174.591 152.683 174.591C152.683 174.591 74.5378 177.422 56.5721 173.599L56.5733 173.599Z" fill="#EE7500"/>
<path d="M62.6116 139.557C62.6116 139.557 73.9079 155.831 61.983 169.984C61.983 169.984 151.458 173.538 155.506 170.693C167.122 162.555 158.649 135.664 158.649 135.664C154.259 134.25 62.613 139.557 62.613 139.557H62.6116Z" fill="#FEFBDE"/>
<path d="M174.834 69.2839C174.834 69.2839 167.41 98.3712 170.942 111.523C170.942 111.523 86.8197 115.109 82.9277 110.327C79.0363 105.544 79.046 72.0753 84.3447 70.082C89.6434 68.0885 174.832 69.2844 174.832 69.2844L174.834 69.2839Z" fill="#FEFBDE"/>
<path d="M178.359 69.6667C178.359 69.6667 169.877 96.7627 174.467 107.918L248.428 101.767C248.428 101.767 245.155 76.4386 252.929 68.0715L178.356 69.6656L178.359 69.6667Z" fill="#D9B68B"/>
<path d="M176.233 3.53664C176.233 3.53664 178.359 10.3113 175.176 10.3113C171.992 10.3113 91.8748 15.5605 88.2817 21.3047C84.6887 27.0487 80.4481 43.3846 88.5811 47.7664C96.7142 52.1477 179.516 48.7326 179.516 48.7326C179.516 48.7326 178.359 53.7434 175.884 53.7434C173.409 53.7434 86.1034 56.1339 81.865 53.345C77.6253 50.556 75.8576 20.6709 81.865 16.6842C87.8725 12.6973 176.237 3.53543 176.237 3.53543L176.233 3.53664Z" fill="#CA0178"/>
<path d="M179.758 2.33354C179.758 2.33354 177.283 9.10815 180.117 9.5064C182.952 9.90464 250.452 18.272 250.452 18.272L250.811 14.6879C250.811 14.6879 184.002 0.342105 179.763 2.33339L179.758 2.33354Z" fill="#B00179"/>
<path d="M184.35 46.958C184.35 46.958 181.196 55.185 182.065 54.8569C182.933 54.5285 247.616 55.7254 248.326 54.1312C249.036 52.5371 251.15 48.1665 246.729 48.359C242.318 48.5513 187.534 45.3665 184.351 46.9584L184.35 46.958Z" fill="#B00179"/>
<path d="M177.632 14.2758C177.632 14.2758 176.026 33.9966 181.424 43.6612C181.424 43.6612 92.452 48.545 89.6196 44.9595C86.7864 41.374 85.3786 25.8334 90.6873 23.4422C95.9862 21.0505 177.636 14.2767 177.636 14.2767L177.632 14.2758Z" fill="#FEFBDE"/>
<path d="M180.465 15.0756C180.465 15.0756 179.756 38.9833 184.706 42.1716C189.655 45.3598 242.325 43.7656 242.325 43.7656C242.325 43.7656 234.901 25.8344 241.965 20.2556L180.464 15.0751L180.465 15.0756Z" fill="#D9B68B"/>
<path d="M163.776 389.557C163.686 389.895 157.968 388.106 148.559 386.239C143.859 385.305 138.23 384.382 131.954 383.584C125.677 382.785 118.751 382.11 111.467 381.469C104.182 380.827 97.2266 380.242 90.9097 379.545C84.5932 378.847 78.905 378.049 74.1653 377.194C64.6656 375.484 58.9275 373.616 58.9873 373.335C59.0572 372.998 64.8748 374.291 74.365 375.574C79.1051 376.226 84.7729 376.856 91.0795 377.43L111.626 379.174C118.92 379.815 125.876 380.546 132.182 381.469C138.479 382.391 144.137 383.494 148.837 384.641C158.247 386.936 163.845 389.287 163.776 389.557L163.776 389.557Z" fill="#26231F"/>
<path d="M167.213 401.137C167.143 401.452 162.363 400.372 154.679 398.516C146.995 396.671 136.398 394.05 124.612 391.688C112.827 389.303 102.08 387.773 94.2766 387.008C86.4634 386.22 81.6035 386.04 81.6035 385.692C81.6035 385.41 86.4833 385.005 94.3669 385.377C102.26 385.725 113.127 387.008 124.972 389.415C136.817 391.8 147.404 394.68 155.018 396.93C162.622 399.202 167.272 400.834 167.212 401.137H167.213Z" fill="#26231F"/>
<path d="M90.5008 308.484C90.5008 308.799 88.0462 309.069 84.0844 309.767C80.1328 310.419 74.6642 311.488 68.507 312.174C62.3799 312.872 56.6619 312.838 52.6204 311.769C50.6047 311.263 49.038 310.509 48.0401 309.834C47.0422 309.159 46.6031 308.608 46.673 308.484C46.8326 308.203 48.9782 309.62 52.8799 310.16C56.7617 310.779 62.2601 310.565 68.3175 309.879C74.3747 309.193 79.8929 308.394 83.9343 308.147C87.9757 307.854 90.5103 308.17 90.5004 308.484L90.5008 308.484Z" fill="#26231F"/>
<path d="M119.945 321.616C119.906 321.942 115.804 321.503 109.188 320.806C102.572 320.131 93.4412 319.253 83.3322 319.096C78.2728 319.017 73.463 319.13 69.0922 319.355L65.9089 319.535L62.8952 319.85C60.9393 320.018 59.1032 320.142 57.4167 320.165C50.651 320.345 46.5796 318.815 46.6693 318.522C46.7292 318.196 50.7706 319.13 57.357 318.534C58.9935 318.41 60.7997 318.196 62.7257 317.937L65.7393 317.521L68.9825 317.229C73.3931 316.891 78.2533 316.711 83.3624 316.79C93.5713 316.947 102.761 318.095 109.357 319.186C115.963 320.3 119.985 321.312 119.945 321.616L119.945 321.616Z" fill="#26231F"/>
<path d="M165.841 255.985C165.881 256.299 163.665 256.983 160.063 257.861C156.451 258.732 151.451 259.811 145.853 260.681C140.265 261.569 135.146 261.985 131.434 262.008C127.721 262.031 125.426 261.693 125.426 261.389C125.426 261.063 127.701 260.815 131.354 260.377C134.996 259.948 140.025 259.272 145.573 258.399C151.122 257.526 156.161 256.71 159.833 256.251C163.506 255.792 165.791 255.67 165.84 255.985H165.841Z" fill="#26231F"/>
<path d="M168.571 198.858C168.571 199.186 166.196 199.438 162.375 199.846L147.436 201.43C141.579 202.005 136.23 202.26 132.348 202.098C128.466 201.956 126.091 201.478 126.111 201.173C126.131 200.843 128.506 200.74 132.328 200.466C136.15 200.212 141.419 199.706 147.257 199.132C153.104 198.562 158.443 198.193 162.315 198.217C166.187 198.224 168.572 198.549 168.572 198.858H168.571Z" fill="#26231F"/>
<path d="M163.783 207.348C163.774 207.986 159.202 208.476 153.564 208.982C147.926 209.489 143.286 209.543 143.236 208.892C143.176 208.276 147.717 207.182 153.414 206.683C159.112 206.183 163.792 206.711 163.783 207.348V207.348Z" fill="#26231F"/>
<path d="M102.829 145.586C102.82 145.912 100.913 146.171 97.8294 146.577C94.7559 146.963 90.4951 147.546 85.7249 147.88C80.9549 148.214 76.5743 148.047 73.4505 147.419C70.3171 146.811 68.5009 145.866 68.5808 145.586C68.6606 145.255 70.5566 145.622 73.6101 145.799C76.6637 145.995 80.8949 145.915 85.6046 145.577C90.3147 145.248 94.6153 144.919 97.7493 144.948C100.893 144.957 102.829 145.275 102.829 145.586L102.829 145.586Z" fill="#26231F"/>
<path d="M172.008 76.0856C172.008 76.4197 167.219 76.6424 159.485 77.2105C151.761 77.7449 141.094 78.7574 129.298 79.8182C117.503 80.879 106.756 81.5214 98.9714 81.5035C91.1976 81.5194 86.3982 81.0152 86.3982 80.7182C86.4072 80.3785 91.2081 80.3042 98.9416 79.8745C106.675 79.4728 117.332 78.5785 129.137 77.5176C140.932 76.4601 151.649 75.6996 159.423 75.5793C167.207 75.4296 172.006 75.7841 172.006 76.0855L172.008 76.0856Z" fill="#26231F"/>
<path d="M169.264 85.3618C169.285 85.6802 168.087 86.0886 166.131 86.5386C164.175 86.9773 161.451 87.4881 158.387 87.7457C155.323 88.0123 152.489 87.8695 150.474 87.4521C148.458 87.0347 147.291 86.4317 147.35 86.1347C147.41 85.8107 148.648 85.8456 150.604 85.8276C152.559 85.8207 155.244 85.7049 158.237 85.4451C161.231 85.1853 163.975 84.9433 165.981 84.9163C167.977 84.8816 169.234 85.0468 169.264 85.3618H169.264Z" fill="#26231F"/>
<path d="M173.36 23.593C173.36 23.9159 171.683 24.1803 168.979 24.5324C166.275 24.8845 162.543 25.3525 158.361 25.6877C154.19 26.0298 150.358 26.0061 147.594 25.6361C144.83 25.266 143.184 24.6641 143.234 24.3625C143.274 24.0352 144.97 24.0712 147.664 24.0071C150.368 23.9554 154.081 23.7258 158.222 23.3872C162.363 23.0486 166.156 22.8247 168.91 22.9034C171.664 22.9822 173.371 23.2803 173.36 23.5931L173.36 23.593Z" fill="#26231F"/>
<path d="M222.679 82.272C222.679 82.5994 220.224 82.8491 216.282 83.3149C212.341 83.7559 206.892 84.4646 200.815 84.9495C194.738 85.4434 189.17 85.4006 185.168 84.8371C181.157 84.2971 178.782 83.3251 178.852 83.0439C178.911 82.7053 181.336 83.0956 185.278 83.2116C189.21 83.35 194.648 83.1374 200.676 82.6469C206.703 82.1665 212.201 81.7142 216.203 81.6872C220.204 81.6367 222.679 81.964 222.679 82.2722L222.679 82.272Z" fill="#26231F"/>
<path d="M208.299 204.251C208.379 204.914 201.484 206.373 192.972 207.43C184.46 208.487 177.594 209.493 177.475 208.885C177.345 208.25 184.16 206.194 192.732 205.137C201.284 204.077 208.219 203.653 208.299 204.251V204.251Z" fill="#26231F"/>
<path d="M217.883 367.163C218.033 367.827 211.068 370.043 202.965 374.026C194.852 377.974 188.784 382.384 188.435 381.833C188.106 381.36 193.804 375.983 202.146 371.911C210.489 367.838 217.784 366.59 217.883 367.163Z" fill="#26231F"/>
<path d="M206.921 381.833C207 382.148 205.733 382.823 203.638 383.678C201.552 384.555 198.648 385.579 195.565 386.963C192.481 388.335 189.867 389.922 188.08 391.283C186.274 392.621 185.236 393.645 185.007 393.42C184.807 393.229 185.496 391.789 187.182 390C188.849 388.212 191.583 386.254 194.806 384.825C198.039 383.374 201.063 382.575 203.258 382.114C205.464 381.653 206.851 381.529 206.921 381.833L206.921 381.833Z" fill="#26231F"/>
<path d="M74.0499 372.584C74.0499 372.584 59.6706 384.16 56.9258 400.372L83.6392 405.783C83.6392 405.783 91.862 379.526 98.0185 375.667C98.0185 375.667 83.6392 367.173 74.0505 372.585L74.0499 372.584Z" fill="#26231F"/>
<path d="M182.652 356.335C182.652 356.335 185.187 364.142 181.495 365.706C177.803 367.259 35.4329 351.138 26.4331 359.721C26.4331 359.721 7.74271 372.726 26.4331 403.168L182.656 426.837C182.656 426.837 185.42 437.503 183.574 437.503C181.728 437.503 21.8153 410.448 18.8199 408.884C15.8162 407.331 4.96901 382.088 8.20214 369.87C11.4353 357.652 19.5086 348.54 23.2002 347.753C26.8924 346.976 182.656 356.336 182.656 356.336L182.652 356.335Z" fill="#E20415"/>
<path d="M185.688 426.328C185.688 426.328 184.381 435.879 188.412 435.462C192.444 435.046 255.729 402.468 256.471 400.396C257.199 398.338 257.569 391.734 256.471 392.567C255.373 393.388 188.466 420.917 185.688 426.328L185.688 426.328Z" fill="#C80015"/>
<path d="M186.564 356.267L190.466 359.034C190.466 359.034 258.654 329.043 260.481 326.567C262.308 324.091 260.85 315.846 260.85 315.846C260.85 315.846 187.663 352.138 186.57 356.266L186.564 356.267Z" fill="#C80015"/>
<path d="M161.467 126.835C161.467 126.835 176.785 155.014 161.576 172.16C161.576 172.16 254.692 162.475 256.478 159.953C258.265 157.432 260.689 127.933 257.117 126.923C253.544 125.912 162.364 122.3 161.468 126.837L161.467 126.835Z" fill="#D2650C"/>
<path d="M57.9045 128.243C57.9045 128.243 55.0505 136.53 57.9045 136.027C92.1133 130.013 157.717 132.843 158.342 131.428C158.961 130.013 156.456 125.413 156.456 125.413C156.456 125.413 61.0448 124.705 57.9068 128.243L57.9045 128.243Z" fill="#EE7500"/>
<path d="M174.467 57.3143C174.467 57.3143 176.233 64.4872 172.352 64.0878C168.46 63.6896 82.442 64.0351 80.9137 67.8463C79.3869 71.6601 68.7895 90.3863 79.7462 113.498C79.7462 113.498 80.4447 115.89 82.5702 116.687C84.6956 117.483 163.161 113.896 163.507 117.085C163.855 120.273 163.158 122.663 163.158 122.663C163.158 122.663 82.5673 123.059 79.7417 121.466C76.9175 119.873 66.3099 95.9652 76.1992 63.6896C76.1992 63.6896 140.882 56.1182 174.463 57.3144L174.467 57.3143Z" fill="#FEC611"/>
<path d="M177.999 58.5174C177.999 58.5174 179.027 61.529 181.332 62.2896C183.637 63.0502 262.48 65.6892 262.48 64.0952V59.3141C262.48 59.3141 178.703 55.3305 177.997 58.5176L177.999 58.5174Z" fill="#CD9E00"/>
<path d="M168.096 114.701C168.096 114.701 170.86 118.297 173.694 118.297C176.528 118.297 255.5 119.251 255.854 116.86C256.213 114.471 255.764 110.717 255.764 110.717C255.764 110.717 171.988 111.911 168.096 114.701H168.096Z" fill="#CD9E00"/>
<path d="M74.7495 373.329C74.7495 373.329 58.9927 393.41 62.4153 396.493C65.848 399.587 82.962 397.27 82.962 397.27C82.962 397.27 95.9747 377.2 93.9187 374.882C91.8728 372.565 80.2274 371.012 74.7488 373.33L74.7495 373.329Z" fill="#E20415"/>
<path d="M192.039 299.283C192.039 299.283 258.109 270.091 260.79 275.118L263.465 280.146C263.465 280.146 197.394 312.365 194.713 310.351C192.039 308.337 187.568 299.281 192.039 299.281V299.283Z" fill="#078CC9"/>
</g>
<defs>
<clipPath id="clip0">
<rect width="278" height="444" fill="white"/>
</clipPath>
</defs>
</svg>
